<svg id="Layer_1" data-name="Layer 1" xmlns="http://www.w3.org/2000/svg" xmlns:xlink="http://www.w3.org/1999/xlink" viewBox="0 0 171.76 70.2"><defs><style>.cls-1{fill:url(#New_Gradient_Swatch_1);}.cls-2{fill:#fff;}.cls-3{fill:url(#New_Gradient_Swatch_1-2);}.cls-4{fill:url(#linear-gradient);}.cls-5{fill:none;stroke:#274f82;stroke-miterlimit:10;stroke-width:0.5px;}</style><linearGradient id="New_Gradient_Swatch_1" x1="87.8" y1="75.55" x2="87.8" y2="5.45" gradientTransform="matrix(1, 0, 0, -1, -1.14, 75.65)" gradientUnits="userSpaceOnUse"><stop offset="0" stop-color="#274f82"/><stop offset="1" stop-color="#152c4b"/></linearGradient><linearGradient id="New_Gradient_Swatch_1-2" x1="159.6" y1="3.05" x2="159.6" y2="73.08" gradientTransform="matrix(1, 0, 0, 1, 0, 0)" xlink:href="#New_Gradient_Swatch_1"/><linearGradient id="linear-gradient" x1="14.57" y1="3.05" x2="14.57" y2="73.08" gradientUnits="userSpaceOnUse"><stop offset="0" stop-color="#274f82"/><stop offset="0.49" stop-color="#1f3f69"/><stop offset="1" stop-color="#152c4b"/></linearGradient></defs><title>less_logo</title><polygon class="cls-1" points="155.96 66.01 145.76 70.2 26.06 70.2 13.96 66.61 10.86 61.01 10.86 10.59 15.36 3.69 35.86 0.1 146.86 0.1 155.96 3.99 162.46 11.7 162.46 59 155.96 66.01"/><path class="cls-2" d="M29,8.3" transform="translate(-1.14 -2.9)"/><path class="cls-2" d="M67.1,60.6c-6.6,0-11.7-1.9-15.4-5.7s-5.5-9-5.5-15.8c0-6.5,1.7-11.7,5.2-15.6s8.2-5.8,14.2-5.8c5.7,0,10,1.8,13.2,5.3s4.7,8.2,4.7,14.1v4.2H56.1c.1,3.8,1.2,6.8,3.2,8.9a11,11,0,0,0,8.3,3.2,26.05,26.05,0,0,0,12.9-3.5l1.4,7A29.27,29.27,0,0,1,67.1,60.6ZM56.2,35.1H74.1c0-3.3-.8-5.9-2.3-7.7a7.75,7.75,0,0,0-6.3-2.7,9,9,0,0,0-6.4,2.6C57.5,29,56.5,31.6,56.2,35.1Z" transform="translate(-1.14 -2.9)"/><path class="cls-2" d="M99.7,60.5c-6.1,0-10.9-1-14.5-3.1l1-7.4a27.75,27.75,0,0,0,6.3,2.4,26.63,26.63,0,0,0,7,1.1,9.16,9.16,0,0,0,5.1-1.2,4,4,0,0,0,1.8-3.6,4.22,4.22,0,0,0-1.7-3.4c-1.1-.9-3.3-1.8-6.5-3.1-1.1-.4-1.8-.7-2.1-.8-3.8-1.5-6.5-3.1-8.2-4.9a10.28,10.28,0,0,1-2.5-7.3,10.14,10.14,0,0,1,4.1-8.6c2.7-2,6.5-3,11.3-3a30.46,30.46,0,0,1,13.8,3L112,27.4a26.6,26.6,0,0,0-11.2-2.7,8.49,8.49,0,0,0-4.6,1,3.4,3.4,0,0,0-1.7,3,3.31,3.31,0,0,0,1.6,3,42.48,42.48,0,0,0,6.3,2.8,6.47,6.47,0,0,1,1,.3c.6.2,1,.4,1.3.5,3.8,1.4,6.5,3,8.3,4.9a10.46,10.46,0,0,1,2.7,7.5c0,4.1-1.4,7.3-4.2,9.5S104.8,60.5,99.7,60.5Z" transform="translate(-1.14 -2.9)"/><path class="cls-2" d="M131.8,60.5c-6.1,0-10.9-1-14.5-3.1l1-7.4a27.75,27.75,0,0,0,6.3,2.4,26.63,26.63,0,0,0,7,1.1,9.16,9.16,0,0,0,5.1-1.2,4,4,0,0,0,1.8-3.6,4.22,4.22,0,0,0-1.7-3.4c-1.1-.9-3.3-1.8-6.5-3.1-1.1-.4-1.8-.7-2.1-.8-3.8-1.5-6.5-3.1-8.2-4.9a10.28,10.28,0,0,1-2.5-7.3,10.14,10.14,0,0,1,4.1-8.6c2.7-2,6.5-3,11.3-3a30.46,30.46,0,0,1,13.8,3l-2.4,6.8a26.6,26.6,0,0,0-11.2-2.7,8.49,8.49,0,0,0-4.6,1,3.4,3.4,0,0,0-1.7,3,3.31,3.31,0,0,0,1.6,3,42.48,42.48,0,0,0,6.3,2.8,6.47,6.47,0,0,1,1,.3c.5.2,1,.4,1.3.5,3.8,1.4,6.5,3,8.3,4.9a10.46,10.46,0,0,1,2.7,7.5c0,4.1-1.4,7.3-4.2,9.5Q139.3,60.5,131.8,60.5Z" transform="translate(-1.14 -2.9)"/><path class="cls-2" d="M146.8,72.58V64.91c2.8,0,4.6-.49,5.5-1.38s1.3-2.65,1.3-5.31V47.8a9.06,9.06,0,0,1,2-6.19,12.63,12.63,0,0,1,6.3-3.45,12.85,12.85,0,0,1-6.2-3.63,9.45,9.45,0,0,1-2-6.2V17.91c0-2.56-.4-4.33-1.3-5.21s-2.7-1.38-5.5-1.38V3.55a52.21,52.21,0,0,1,7.4.49,13.15,13.15,0,0,1,5.1,1.77,8.53,8.53,0,0,1,3.2,3.54,13.35,13.35,0,0,1,1,5.71V26c0,3.05.6,5.21,1.8,6.29s3.5,1.77,7,1.77v8.26c-3.4,0-5.8.59-7,1.77s-1.8,3.35-1.8,6.49v11c0,4.23-1.3,7.18-3.9,8.75S152.7,72.58,146.8,72.58Z" transform="translate(-1.14 -2.9)"/><path class="cls-3" d="M146.9,3.55a52.21,52.21,0,0,1,7.4.49,13.15,13.15,0,0,1,5.1,1.77,8.53,8.53,0,0,1,3.2,3.54,13.35,13.35,0,0,1,1,5.71V26c0,3.05.6,5.21,1.8,6.29s3.5,1.77,7,1.77v8.26c-3.4,0-5.8.59-7,1.77s-1.8,3.35-1.8,6.49v11c0,4.23-1.3,7.18-3.9,8.75s-7,2.26-12.9,2.26V64.91c2.8,0,4.6-.49,5.5-1.38s1.3-2.65,1.3-5.31V47.8a9.06,9.06,0,0,1,2-6.19,12.63,12.63,0,0,1,6.3-3.45,12.85,12.85,0,0,1-6.2-3.63,9.45,9.45,0,0,1-2-6.2V17.91c0-2.56-.4-4.33-1.3-5.21s-2.7-1.38-5.5-1.38V3.55m0-.5h-.5v8.77h.5c2.55,0,4.33.42,5.15,1.23s1.15,2.39,1.15,4.86V28.33a9.93,9.93,0,0,0,2.11,6.51,11.85,11.85,0,0,0,5,3.29,11.83,11.83,0,0,0-5.08,3.15,9.53,9.53,0,0,0-2.12,6.52V58.22c0,2.58-.38,4.2-1.15,5s-2.6,1.23-5.15,1.23h-.5v8.67h.5c5.9,0,10.32-.78,13.14-2.32s4.16-4.76,4.16-9.19v-11c0-3,.56-5,1.65-6.13s3.38-1.63,6.65-1.63h.5V33.53h-.5c-3.31,0-5.55-.54-6.65-1.62s-1.65-3-1.65-5.94V15.06a13.53,13.53,0,0,0-1-5.92,8.89,8.89,0,0,0-3.38-3.75,13.52,13.52,0,0,0-5.3-1.84,51.67,51.67,0,0,0-7.47-.5Z" transform="translate(-1.14 -2.9)"/><path class="cls-2" d="M14.34,70.32c-2.6-1.57-3.9-4.52-3.9-8.75v-11c0-3.14-.6-5.31-1.8-6.49s-3.6-1.77-7-1.77V34c3.5,0,5.8-.59,7-1.77S10.44,29,10.44,26V15.06a13.35,13.35,0,0,1,1-5.71,8.53,8.53,0,0,1,3.2-3.54A13.15,13.15,0,0,1,19.74,4a57.87,57.87,0,0,1,7.76-.49v7.72c-2.8,0-5,.54-5.86,1.43s-1.3,2.65-1.3,5.21V28.33a9.45,9.45,0,0,1-2,6.2,12.85,12.85,0,0,1-6.2,3.63,12.63,12.63,0,0,1,6.3,3.45,9.06,9.06,0,0,1,2,6.19V58.22c0,2.66.4,4.43,1.3,5.31s2.7,1.38,5.5,1.38v7.67C21.34,72.58,17,71.79,14.34,70.32Z" transform="translate(-1.14 -2.9)"/><path class="cls-4" d="M27.5,3.55v7.72c-2.8,0-5,.54-5.86,1.43s-1.3,2.65-1.3,5.21V28.33a9.45,9.45,0,0,1-2,6.2,12.85,12.85,0,0,1-6.2,3.63,12.63,12.63,0,0,1,6.3,3.45,9.06,9.06,0,0,1,2,6.19V58.22c0,2.66.4,4.43,1.3,5.31s2.7,1.38,5.5,1.38v7.67c-5.9,0-10.2-.79-12.9-2.26s-3.9-4.52-3.9-8.75v-11c0-3.14-.6-5.31-1.8-6.49s-3.6-1.77-7-1.77V34c3.5,0,5.8-.59,7-1.77S10.44,29,10.44,26V15.06a13.35,13.35,0,0,1,1-5.71,8.53,8.53,0,0,1,3.2-3.54A13.15,13.15,0,0,1,19.74,4a57.87,57.87,0,0,1,7.76-.49m.5-.5h-.5a58.06,58.06,0,0,0-7.84.5,13.42,13.42,0,0,0-5.29,1.84A8.89,8.89,0,0,0,11,9.14a13.53,13.53,0,0,0-1.05,5.92V26c0,2.91-.57,5-1.64,5.92S5,33.53,1.64,33.53h-.5v9.26h.5c3.26,0,5.56.57,6.65,1.63s1.65,3.14,1.65,6.13v11c0,4.43,1.39,7.51,4.14,9.18s7.26,2.33,13.16,2.33h.5V64.41h-.5c-2.55,0-4.33-.43-5.15-1.23s-1.15-2.38-1.15-5V47.8a9.53,9.53,0,0,0-2.13-6.52,11.77,11.77,0,0,0-5.08-3.15,11.72,11.72,0,0,0,5-3.29,9.88,9.88,0,0,0,2.12-6.51V17.91c0-2.47.38-4.11,1.15-4.86s2.91-1.28,5.51-1.28H28V3.05Z" transform="translate(-1.14 -2.9)"/><path class="cls-2" d="M41.49,60.34a21.34,21.34,0,0,1-7-1,9.11,9.11,0,0,1-4.39-3.16,13,13,0,0,1-2.24-5.15,36.81,36.81,0,0,1-.63-7.43V2.9L37,3V43.44q0,5.52,1.3,7.48t5.08,2a35.46,35.46,0,0,0,4.74-.41l.26,7-.91.19c-.59.12-1.15.23-1.68.31s-1.22.18-2,.26A20.92,20.92,0,0,1,41.49,60.34Z" transform="translate(-1.14 -2.9)"/><line class="cls-5" x1="26.07" y1="0.4" x2="35.88" y2="0.35"/></svg>